<svg xmlns="http://www.w3.org/2000/svg" xmlns:xlink="http://www.w3.org/1999/xlink" width="0" height="0" style="position:absolute">
	
		<symbol id="account-icon" viewBox="0 0 24 24">
			<path d="M12 2C6.48 2 2 6.48 2 12s4.48 10 10 10 10-4.48 10-10S17.52 2 12 2zm0 3c1.66 0 3 1.34 3 3s-1.34 3-3 3-3-1.34-3-3 1.34-3 3-3zm0 14.2a7.2 7.2 0 0 1-6-3.22c.03-1.99 4-3.08 6-3.08 1.99 0 5.97 1.09 6 3.08a7.2 7.2 0 0 1-6 3.22z"></path>
		</symbol>
	
		<symbol id="add-icon" viewBox="0 0 24 24">
			<path d="M19 13h-6v6h-2v-6H5v-2h6V5h2v6h6v2z"></path>
		</symbol>
	
		<symbol id="arrow-back-icon" viewBox="0 0 24 24">
			<path d="M20 11H7.83l5.59-5.59L12 4l-8 8 8 8 1.41-1.41L7.83 13H20v-2z"></path>
		</symbol>
	
		<symbol id="check-icon" viewBox="0 0 24 24">
			<path d="M12 2C6.48 2 2 6.48 2 12s4.48 10 10 10 10-4.48 10-10S17.52 2 12 2zm-2 15l-5-5 1.41-1.41L10 14.17l7.59-7.59L19 8l-9 9z"></path>
		</symbol>
	
		<symbol id="close-icon" viewBox="0 0 24 24">
			<path d="M19 6.41L17.59 5 12 10.59 6.41 5 5 6.41 10.59 12 5 17.59 6.41 19 12 13.41 17.59 19 19 17.59 13.41 12z"></path>
		</symbol>
	
		<symbol id="delete-icon" viewBox="0 0 24 24">
			<path d="M6 19c0 1.1.9 2 2 2h8c1.1 0 2-.9 2-2V7H6v12zM19 4h-3.5l-1-1h-5l-1 1H5v2h14V4z"></path>
		</symbol>
	
		<symbol id="device-hub-icon" viewBox="0 0 24 24">
			<path d="M17 16l-4-4V8.82C14.16 8.4 15 7.3 15 6c0-1.66-1.34-3-3-3S9 4.34 9 6c0 1.3.84 2.4 2 2.82V12l-4 4H3v5h5v-3.05l4-4.2 4 4.2V21h5v-5h-4z"></path>
		</symbol>
	
		<symbol id="dropdown-icon" viewBox="0 0 24 24">
			<path d="M7 10l5 5 5-5z"></path>
		</symbol>
	
		<symbol id="error-icon" viewBox="0 0 24 24">
			<path d="M12 2C6.48 2 2 6.48 2 12s4.48 10 10 10 10-4.48 10-10S17.52 2 12 2zm1 15h-2v-2h2v2zm0-4h-2V7h2v6z"></path>
		</symbol>
	
		<symbol id="forward-icon" viewBox="0 0 24 24">
			<path d="M12 8V4l8 8-8 8v-4H4V8z"></path>
		</symbol>
	
		<symbol id="group-icon" viewBox="0 0 24 24">
			<path d="M16 11c1.66 0 2.99-1.34 2.99-3S17.66 5 16 5c-1.66 0-3 1.34-3 3s1.34 3 3 3zm-8 0c1.66 0 2.99-1.34 2.99-3S9.66 5 8 5C6.34 5 5 6.34 5 8s1.34 3 3 3zm0 2c-2.33 0-7 1.17-7 3.5V19h14v-2.5c0-2.33-4.67-3.5-7-3.5zm8 0c-.29 0-.62.02-.97.05 1.16.84 1.97 1.97 1.97 3.45V19h6v-2.5c0-2.33-4.67-3.5-7-3.5z"></path>
		</symbol>
	
		<symbol id="menu-icon" viewBox="0 0 24 24">
			<path d="M3 18h18v-2H3v2zm0-5h18v-2H3v2zm0-7v2h18V6H3z"></path>
		</symbol>
	
		<symbol id="power-icon" viewBox="0 0 24 24">
			<path d="M13 3h-2v10h2V3zm4.83 2.17l-1.42 1.42A6.92 6.92 0 0 1 19 12c0 3.87-3.13 7-7 7A6.995 6.995 0 0 1 7.58 6.58L6.17 5.17A8.932 8.932 0 0 0 3 12a9 9 0 0 0 18 0c0-2.74-1.23-5.18-3.17-6.83z"></path>
		</symbol>
	
		<symbol id="save-icon" viewBox="0 0 24 24">
			<path d="M17 3H5a2 2 0 0 0-2 2v14a2 2 0 0 0 2 2h14c1.1 0 2-.9 2-2V7l-4-4zm-5 16c-1.66 0-3-1.34-3-3s1.34-3 3-3 3 1.34 3 3-1.34 3-3 3zm3-10H5V5h10v4z"></path>
		</symbol>
	
		<symbol id="search-icon" viewBox="0 0 24 24">
			<path d="M15.5 14h-.79l-.28-.27A6.471 6.471 0 0 0 16 9.5 6.5 6.5 0 1 0 9.5 16c1.61 0 3.09-.59 4.23-1.57l.27.28v.79l5 4.99L20.49 19l-4.99-5zm-6 0C7.01 14 5 11.99 5 9.5S7.01 5 9.5 5 14 7.01 14 9.5 11.99 14 9.5 14z"></path>
		</symbol>
	
		<symbol id="settings-icon" viewBox="0 0 24 24">
			<path d="M19.43 12.98c.04-.32.07-.64.07-.98s-.03-.66-.07-.98l2.11-1.65c.19-.15.24-.42.12-.64l-2-3.46c-.12-.22-.39-.3-.61-.22l-2.49 1c-.52-.4-1.08-.73-1.69-.98l-.38-2.65A.488.488 0 0 0 14 2h-4c-.25 0-.46.18-.49.42l-.38 2.65c-.61.25-1.17.59-1.69.98l-2.49-1c-.23-.09-.49 0-.61.22l-2 3.46c-.13.22-.07.49.12.64l2.11 1.65c-.04.32-.07.65-.07.98s.03.66.07.98l-2.11 1.65c-.19.15-.24.42-.12.64l2 3.46c.12.22.39.3.61.22l2.49-1c.52.4 1.08.73 1.69.98l.38 2.65c.03.24.24.42.49.42h4c.25 0 .46-.18.49-.42l.38-2.65c.61-.25 1.17-.59 1.69-.98l2.49 1c.23.09.49 0 .61-.22l2-3.46c.12-.22.07-.49-.12-.64l-2.11-1.65zM12 15.5c-1.93 0-3.5-1.57-3.5-3.5s1.57-3.5 3.5-3.5 3.5 1.57 3.5 3.5-1.57 3.5-3.5 3.5z"></path>
		</symbol>
	
</svg>
