<svg id="logo" xmlns="http://www.w3.org/2000/svg" viewBox="0 0 500 500">
  <title>MailAdmin Logo</title>
  <path d="M277,275.5V205a35.31,35.31,0,0,0-6.75-1.2,97.26,97.26,0,0,0-11.33-.6c-14.2,0-24.76,4.4-31.76,13.2s-10.48,19.9-10.48,33.3q0,21.3,10.21,33.9t27.6,12.6a62.12,62.12,0,0,0,12.75-1.35,43.78,43.78,0,0,0,11.55-4,52.64,52.64,0,0,1-1.35-7.8C277.25,280.4,277,277.9,277,275.5Z"/>
  <path d="M489.44,315.73l-52.82-41.08q1.16-8.2,1.17-24.65t-1.17-24.65l52.82-41.08q8.2-5.86,2.35-16.43L441.32,81q-4.7-8.2-15.26-4.69l-62.21,24.65A193.66,193.66,0,0,0,321.6,76.29l-9.39-65.73Q309.85,0,300.48,0H199.54q-9.41,0-11.74,10.56l-9.39,65.73q-17.61,7-42.25,24.65L74,76.29Q63.39,72.77,58.69,81L8.22,167.84q-5.89,10.56,2.35,16.43l52.82,41.08Q62.2,233.58,62.21,250t1.17,24.65L10.57,315.73q-8.23,5.89-2.35,16.43L58.69,419q4.68,8.23,15.26,4.69l62.21-24.65a191.39,191.39,0,0,0,42.25,24.65l9.39,65.73Q190.14,500,199.54,500H300.48q9.38,0,11.74-10.56l9.39-65.73q17.61-7,42.25-24.65l62.21,24.65q10.56,3.52,15.26-4.69l50.47-86.85Q497.65,321.6,489.44,315.73ZM368.35,272.8Q363.7,288.4,355.9,299a51.57,51.57,0,0,1-18.6,16,50.33,50.33,0,0,1-22.8,5.4q-9.6,0-15.9-2.7a30.63,30.63,0,0,1-10.5-7.2,74.28,74.28,0,0,1-15.9,6.15,70,70,0,0,1-18.6,2.55,73.41,73.41,0,0,1-26.25-4.5,56.59,56.59,0,0,1-20.55-13.35,60.65,60.65,0,0,1-13.5-21.75q-4.8-12.9-4.8-30a81,81,0,0,1,4.5-27.15,61.48,61.48,0,0,1,35-37q12.75-5.4,28.95-5.4a154.37,154.37,0,0,1,28.25,2.4A167.57,167.57,0,0,1,305,187.3v91.8c0,6.4.9,10.9,3.1,13.5a10.63,10.63,0,0,0,8.6,3.9,19.38,19.38,0,0,0,13.6-5.4,40.81,40.81,0,0,0,9.57-14.1,84,84,0,0,0,5.54-19.65A137.61,137.61,0,0,0,347.21,235a95.64,95.64,0,0,0-6.6-35.55,86.46,86.46,0,0,0-48.75-49q-17.55-7.2-39.45-7.2a106.92,106.92,0,0,0-40.2,7.35,89.82,89.82,0,0,0-31.5,21A94.85,94.85,0,0,0,160.15,205q-7.35,19.8-7.35,45,0,26.4,7.8,46.35t21.75,33.3a91.09,91.09,0,0,0,33,20.1,124.52,124.52,0,0,0,41.85,6.75q17.7,0,29.25-2.1t14.85-3.3l3,22.2q-5.1,1.8-18.45,3.9a184.75,184.75,0,0,1-28.65,2.1,163.08,163.08,0,0,1-50.4-7.65,114.23,114.23,0,0,1-41.4-23.4q-17.7-15.75-28-40.2T127,250q0-32.4,10.2-56.7t27.45-40.35a114.53,114.53,0,0,1,39.9-24.15,141,141,0,0,1,47.85-8.1,135.31,135.31,0,0,1,46.5,8,113.37,113.37,0,0,1,38.4,23.1,110.21,110.21,0,0,1,26.1,36.6Q373,209.8,373,236.8,373,257.2,368.35,272.8Z"/>
</svg>
