<svg xmlns="http://www.w3.org/2000/svg" viewBox="0 0 3723 441"><defs><style>.cls-1{fill:#222}.cls-2{fill:#fc3c00}</style></defs><title>Kapp-Hamburg Logo</title><path class="cls-1" d="M3591.77 197.21h131v219.73q-55.67 23.73-118.36 23.73-74.71 0-115-56.84t-40.31-163.77q0-103.12 46.14-161.43T3624.29.33q51.27 0 97.85 26.37l-25.2 65q-36.33-21.09-68-21.09-45.41 0-71.92 40.58t-26.51 110.6q0 72.07 19.19 110.45t55.81 38.38a161.32 161.32 0 0 0 39.26-5v-98.1h-53v-70.31zM3242 268.11v166.7h-79.69V6.49h104.3q66.21 0 97.71 31.35t31.49 95.8q0 81.15-54.79 113.38l82.32 187.79h-85.25l-67.68-166.7H3242zm0-68.55h20.51q28.13 0 40.43-16t12.3-47.61q0-32.81-13-46.73t-40.28-13.92H3242v124.25zM3088.45 6.49v277.14q0 76.46-34.57 116.75T2954 440.67q-63.87 0-97.27-40t-33.4-118.21V6.49h79.1v281.83q0 81.74 54.2 81.74 25.19 0 39-20.8t13.77-59.18V6.49h79.1zm-567.45 0h109.28q66.8 0 97.27 25.93t30.45 82.47q0 37.21-16.11 62.26t-43.95 30.32v2.93q36.32 9.08 52.44 34t16.11 66.21q0 58.3-31.2 91.26t-85.4 33H2521V6.49zm75 172.27h36.62q25.19 0 35.45-13.48t10.25-40.14q0-26.66-11.72-38.23t-36.91-11.57H2596v103.41zm0 66.5v119.82h40.14q24.9 0 37.06-15.23t12.16-47.17q0-57.42-50.39-57.42h-39zm-392.61 189.55l-81.44-364.75h-3.22a595.46 595.46 0 0 1 5.57 77.34v287.4h-73.83V6.49h122.46l73.24 336.62h2.34l72.66-336.62h124.22v428.32h-75.59V144.47a683.44 683.44 0 0 1 4.1-73.83h-2.34l-81.15 364.16h-87zm-270.7 0l-24.61-108.11h-111.62l-24.61 108.11h-79.69L1798.22 4.73h108.11l106.35 430.08h-80zm-39.55-178.71l-22.85-99.61q-2.05-9.08-9.23-45.56t-8.64-48.78q-3.81 25.2-9.67 55.52t-30.47 138.43h80.86zm-238.77 178.71h-79.69V247h-105.17v187.81h-79.69V6.49h79.69V176.7h105.18V6.49h79.69v428.32z"/><path id="_-" data-name="-" class="cls-1" d="M1183.57 308.24v-68.55h147.36v68.55h-147.36z"/><path class="cls-2" d="M1146.36 138.32q0 68.27-34.42 104.74t-99.46 36.47h-19.93v155.28h-79.68V6.49h108.69q124.8 0 124.8 131.83zm-153.81 72.07h15.23q29.29 0 43.65-16.11t14.36-52.73q0-33.69-13.18-50t-40.72-16.26h-19.34v135.1z"/><path id="P-2" data-name="P" class="cls-2" d="M859 138.32q0 68.27-34.42 104.74t-99.46 36.47h-19.97v155.28h-79.68V6.49h108.69Q859 6.49 859 138.32zm-153.85 72.07h15.23q29.29 0 43.65-16.11t14.36-52.73q0-33.69-13.18-50t-40.72-16.22h-19.34v135.06z"/><path id="A-2" data-name="A" class="cls-2" d="M507.69 434.81L483.08 326.7H371.46l-24.61 108.11h-79.69L373.22 4.73h108.1l106.35 430.08h-80zM468.14 256.1l-22.85-99.61q-2.05-9.08-9.23-45.56t-8.64-48.78q-3.81 25.2-9.67 55.52T387.28 256.1h80.86z"/><path class="cls-2" d="M267.16 434.81h-85L111.89 251.7 80 283.63v151.18H.27V6.49H80v212.4l27.83-64.16L180.74 6.49H266l-99 185.45z"/></svg>